<svg width="86" height="86" viewBox="0 0 86 86" fill="none" xmlns="http://www.w3.org/2000/svg">
<circle cx="43" cy="43" r="43" fill="#F7FAFF"/>
<path d="M54.8173 55.3934L51.8718 43.1207H40.765C40.396 43.122 40.0382 42.9938 39.754 42.7582C39.4699 42.5227 39.2775 42.1949 39.2104 41.832L38.9036 40.3184C38.864 40.1274 38.8676 39.93 38.914 39.7406C38.9605 39.5511 39.0487 39.3745 39.1722 39.2235C39.2958 39.0725 39.4514 38.9511 39.6279 38.868C39.8044 38.785 39.9972 38.7424 40.1923 38.7434H50.8286L50.3991 36.9025C50.2715 36.385 49.9749 35.9249 49.5562 35.5951C49.1375 35.2653 48.6207 35.0848 48.0877 35.082H33.7695L38.4127 57.6843C38.5437 58.2686 38.8709 58.7903 39.3399 59.1625C39.8089 59.5347 40.3913 59.7349 40.99 59.7298H51.2173C51.7566 59.7337 52.29 59.6177 52.779 59.3902C53.2679 59.1628 53.7003 58.8296 54.0448 58.4146C54.3892 57.9997 54.6372 57.5134 54.7708 56.9909C54.9044 56.4684 54.9203 55.9228 54.8173 55.3934Z" fill="#DBE8FF"/>
<path d="M33.8071 36.7402L27.098 56.9084C27.0357 57.283 27.0556 57.6666 27.1564 58.0327C27.2571 58.3988 27.4363 58.7386 27.6815 59.0286C27.9267 59.3185 28.232 59.5517 28.5763 59.7118C28.9205 59.872 29.2955 59.9554 29.6753 59.9562H38.8594L33.8071 36.7402Z" fill="#DBE8FF"/>
<path d="M57.3099 60.9776H40.9462C40.1013 60.975 39.2833 60.6803 38.6309 60.1435C37.9785 59.6066 37.5319 58.8607 37.3667 58.0321L31.128 27.2275C31.0999 27.078 31.1036 26.9242 31.1389 26.7762C31.1741 26.6282 31.2401 26.4893 31.3326 26.3685C31.437 26.2496 31.5662 26.1551 31.7111 26.0914C31.856 26.0278 32.013 25.9967 32.1712 26.0003H52.728C52.9582 25.9982 53.1823 26.0737 53.3642 26.2148C53.5461 26.3558 53.6751 26.5541 53.7303 26.7775L60.8076 56.498C60.9345 57.034 60.9381 57.5918 60.8182 58.1294C60.6982 58.667 60.4579 59.1704 60.1153 59.6016C59.7726 60.0329 59.3366 60.3808 58.84 60.6191C58.3435 60.8574 57.7993 60.98 57.2485 60.9776H57.3099ZM33.378 28.0457L39.5144 57.623C39.5853 57.9896 39.7809 58.3203 40.068 58.5589C40.3552 58.7976 40.7161 58.9295 41.0894 58.9321H57.453C57.6973 58.9337 57.9387 58.8792 58.1585 58.7729C58.3784 58.6665 58.5709 58.511 58.7212 58.3185C58.8746 58.1333 58.9823 57.9146 59.0356 57.6801C59.0889 57.4456 59.0863 57.2018 59.028 56.9685L51.9303 28.0457H33.378Z" fill="#256FEF"/>
<path d="M35.6741 60.9991H29.6809C29.1541 61.0007 28.6335 60.886 28.1562 60.6632C27.6789 60.4405 27.2566 60.1152 26.9195 59.7104C26.5653 59.3102 26.303 58.8373 26.1511 58.3249C25.9992 57.8125 25.9612 57.2731 26.04 56.7445L31.1331 26.8604C31.1685 26.6129 31.2952 26.3875 31.4882 26.2286C31.6812 26.0696 31.9266 25.9886 32.1763 26.0013C32.4146 26.0004 32.646 26.081 32.8321 26.2299C33.0182 26.3787 33.1477 26.5868 33.1991 26.8195L39.3354 56.6218C39.445 57.1524 39.4348 57.7007 39.3055 58.2268C39.1763 58.753 38.9312 59.2436 38.5883 59.663C38.2453 60.0824 37.813 60.42 37.323 60.6511C36.833 60.8823 36.2976 61.0011 35.7559 60.9991H35.6741ZM32.1763 32.5877L28.0854 57.1331C28.0468 57.3618 28.0598 57.5962 28.1235 57.8192C28.1872 58.0421 28.3 58.248 28.4536 58.4218C28.6017 58.6036 28.789 58.7496 29.0016 58.8488C29.2141 58.948 29.4463 58.9978 29.6809 58.9945H35.6741C35.9129 58.994 36.1488 58.9406 36.3645 58.838C36.5803 58.7354 36.7706 58.5863 36.9218 58.4013C37.0742 58.2194 37.183 58.005 37.2397 57.7745C37.2964 57.5441 37.2996 57.3037 37.2491 57.0718L32.1763 32.5877Z" fill="#256FEF"/>
<path d="M54.9351 27.0234H33.0078L35.6874 30.8484C35.8111 31.0201 35.974 31.1598 36.1625 31.2559C36.3511 31.3519 36.5598 31.4016 36.7715 31.4007H56.326C56.4843 31.3982 56.6391 31.353 56.7738 31.2699C56.9086 31.1868 57.0185 31.0689 57.0918 30.9285C57.1651 30.7882 57.1992 30.6306 57.1904 30.4725C57.1816 30.3144 57.1303 30.1616 57.0419 30.0303L54.9351 27.0234Z" fill="#DBE8FF"/>
<path d="M56.3291 32.4229H36.7745C36.3986 32.4263 36.0275 32.3388 35.6927 32.1679C35.3579 31.9969 35.0694 31.7476 34.8518 31.4411L32.1723 27.6161C32.0725 27.4566 32.0195 27.2723 32.0195 27.0842C32.0195 26.8961 32.0725 26.7119 32.1723 26.5524C32.2541 26.3842 32.3823 26.2428 32.5417 26.145C32.7011 26.0472 32.8852 25.9969 33.0723 26.0001H54.9177C55.082 25.9975 55.2444 26.0353 55.3907 26.1102C55.5369 26.1851 55.6625 26.2948 55.7564 26.4297L57.8018 29.457C57.9997 29.738 58.1159 30.0683 58.1375 30.4112C58.1592 30.7542 58.0855 31.0965 57.9246 31.4002C57.7712 31.6952 57.5432 31.9449 57.2633 32.1243C56.9833 32.3038 56.6612 32.4067 56.3291 32.4229ZM34.9745 28.0456L36.5291 30.2547C36.555 30.2955 36.5915 30.3285 36.6348 30.3502C36.678 30.3718 36.7263 30.3812 36.7745 30.3774H56.0427L54.4064 28.0456H34.9745Z" fill="#256FEF"/>
<path d="M41.9496 60.9986H34.4837C34.2141 60.9933 33.957 60.8839 33.7663 60.6932C33.5756 60.5026 33.4662 60.2455 33.4609 59.9759C33.4609 59.7046 33.5687 59.4445 33.7605 59.2527C33.9523 59.0609 34.2124 58.9531 34.4837 58.9531H41.9496C42.2208 58.9531 42.481 59.0609 42.6728 59.2527C42.8646 59.4445 42.9723 59.7046 42.9723 59.9759C42.9671 60.2455 42.8576 60.5026 42.667 60.6932C42.4763 60.8839 42.2192 60.9933 41.9496 60.9986Z" fill="#256FEF"/>
</svg>
