<svg width="86" height="86" viewBox="0 0 86 86" fill="none" xmlns="http://www.w3.org/2000/svg">
<circle cx="43" cy="43" r="43" fill="#F7FAFF"/>
<path d="M54.6609 60.9994C53.1962 61.0053 51.7686 60.5388 50.5899 59.6693C49.4112 58.7998 48.5442 57.5735 48.1175 56.1723C48.0464 55.9352 48.0723 55.6796 48.1897 55.4616C48.307 55.2437 48.5061 55.0813 48.7432 55.0102C48.9803 54.9391 49.2359 54.965 49.4539 55.0824C49.6718 55.1997 49.8342 55.3989 49.9053 55.6359C50.1249 56.3261 50.4901 56.9612 50.9762 57.4981C51.4623 58.035 52.0581 58.4613 52.7232 58.7481C53.3882 59.0349 54.1072 59.1756 54.8313 59.1606C55.5554 59.1457 56.2679 58.9754 56.9206 58.6613C57.5732 58.3473 58.1509 57.8968 58.6144 57.3402C59.078 56.7837 59.4166 56.1341 59.6075 55.4354C59.7983 54.7367 59.837 54.0052 59.7207 53.2903C59.6045 52.5754 59.3362 51.8938 58.9338 51.2915C58.8327 51.0975 58.8062 50.8732 58.8594 50.661C58.9125 50.4488 59.0417 50.2635 59.2223 50.1401C59.403 50.0167 59.6226 49.9639 59.8396 49.9916C60.0566 50.0193 60.2559 50.1256 60.3998 50.2904C61.1669 51.4304 61.5663 52.7781 61.544 54.152C61.5417 55.0536 61.3618 55.9459 61.0146 56.7779C60.6674 57.6099 60.1598 58.3654 59.5206 59.0013C58.8814 59.6371 58.1233 60.1408 57.2895 60.4837C56.4557 60.8265 55.5625 61.0017 54.6609 60.9994Z" fill="#256FEF"/>
<path d="M30.9747 61.0001C29.157 61.0001 27.4135 60.2792 26.1266 58.9956C24.8396 57.712 24.1142 55.9704 24.1095 54.1527C24.1052 53.3214 24.2568 52.4967 24.5564 51.7213C24.5905 51.5966 24.6517 51.481 24.7358 51.3827C24.8198 51.2845 24.9245 51.2061 25.0425 51.1531C25.1604 51.1001 25.2885 51.0739 25.4178 51.0763C25.547 51.0787 25.6742 51.1097 25.79 51.1671C25.9008 51.2087 26.0023 51.2719 26.0885 51.353C26.1747 51.4342 26.2439 51.5316 26.2922 51.6397C26.3404 51.7478 26.3667 51.8644 26.3695 51.9828C26.3723 52.1011 26.3515 52.2189 26.3085 52.3291C26.0534 52.9788 25.935 53.6742 25.9607 54.3717C25.9863 55.0692 26.1556 55.754 26.4578 56.3832C26.76 57.0124 27.1887 57.5725 27.7171 58.0285C28.2455 58.4846 28.8622 58.8268 29.5288 59.0338C30.1954 59.2408 30.8976 59.3082 31.5914 59.2317C32.2851 59.1551 32.9557 58.9364 33.5612 58.589C34.1666 58.2417 34.6939 57.7733 35.1102 57.213C35.5265 56.6527 35.8228 56.0126 35.9806 55.3327C36.0054 55.2181 36.0535 55.1099 36.1218 55.0146C36.1901 54.9194 36.2772 54.8391 36.3777 54.7788C36.4782 54.7185 36.59 54.6794 36.7062 54.664C36.8224 54.6486 36.9405 54.6571 37.0533 54.6891C37.2829 54.7442 37.4813 54.888 37.6052 55.089C37.7292 55.29 37.7685 55.5318 37.7148 55.7618C37.3476 57.2675 36.4816 58.6047 35.2579 59.5558C34.0341 60.5069 32.5245 61.0159 30.9747 61.0001Z" fill="#256FEF"/>
<path d="M49.4972 32.4668C49.6223 32.8422 49.7475 33.1998 49.8369 33.5752C50.585 36.7048 50.8205 39.9351 50.5341 43.1401C50.1766 46.3403 45.5282 48.9863 42.328 49.165C41.8325 49.2381 41.327 49.137 40.8978 48.879C40.4264 48.534 40.0644 48.0605 39.8551 47.5152C39.6459 46.9698 39.5982 46.3757 39.7178 45.8039C39.9518 45.0203 40.3685 44.3034 40.9335 43.7122L41.595 43.0686C41.7695 42.8983 41.9034 42.691 41.9869 42.462C42.0705 42.233 42.1015 41.9882 42.0777 41.7456C42.0257 41.3808 41.8429 41.0473 41.5634 40.8072C41.2838 40.5671 40.9266 40.4368 40.5581 40.4405H34.3901C27.0958 40.4405 24.8789 48.7717 24.8789 52.9552H29.0445L35.4628 56.5309H46.9227L56.9166 47.2878C56.577 43.9804 55.5221 37.2939 52.3398 33.164L49.4972 32.4668Z" fill="white"/>
<path d="M29.0439 52.9526L35.4622 56.5282H46.9221L56.04 48.0897C54.8893 43.1432 52.8346 38.4519 49.9793 34.252L50.3726 36.4331C50.678 38.6847 50.7319 40.9633 50.5335 43.2268C50.4824 43.5947 50.3863 43.955 50.2475 44.2995C50.2587 44.9025 50.1865 45.5041 50.0329 46.0873C49.4234 47.4942 48.4676 48.7238 47.2547 49.6616C46.0418 50.5995 44.6112 51.215 43.0962 51.4508C42.2953 51.5689 41.4784 51.514 40.7005 51.2899C39.6457 50.7714 39.306 50.3066 39.5384 49.1445C39.6463 48.7115 39.8277 48.3003 40.0748 47.9288C39.701 47.2866 39.5739 46.5303 39.7172 45.8013C39.9309 45.1418 40.2777 44.5333 40.7363 44.0135C40.6117 43.9965 40.4854 43.9965 40.3608 44.0135H34.318C28.7579 44.0135 26.2192 48.9657 25.3789 53.0777L29.0439 52.9526Z" fill="#DBE8FF"/>
<path d="M47.2411 30.5703C47.1405 30.5873 47.0377 30.5873 46.9371 30.5703L42.6642 29.0864C42.4272 29.0105 42.2299 28.8436 42.1159 28.6223C42.0019 28.401 41.9805 28.1435 42.0564 27.9064C42.1322 27.6693 42.2992 27.4721 42.5205 27.3581C42.7417 27.2441 42.9993 27.2227 43.2363 27.2986L47.5271 28.8003C47.7642 28.8383 47.9765 28.9688 48.1173 29.1633C48.2581 29.3577 48.3159 29.6002 48.278 29.8373C48.2401 30.0743 48.1095 30.2866 47.915 30.4275C47.7206 30.5683 47.4781 30.6261 47.2411 30.5881V30.5703Z" fill="#256FEF"/>
<path d="M46.9199 57.3344H35.4599C35.3102 57.3352 35.1626 57.2983 35.0309 57.2271L28.8271 53.8303H24.876C24.6451 53.8257 24.425 53.7319 24.2616 53.5686C24.0983 53.4053 24.0046 53.1852 24 52.9542C24 47.7696 26.8248 39.5635 34.4051 39.5635H40.5731C41.0592 39.5517 41.5373 39.6892 41.9428 39.9575C42.3484 40.2258 42.6619 40.612 42.8412 41.0641C43.0204 41.5161 43.0568 42.0122 42.9453 42.4855C42.8339 42.9589 42.58 43.3867 42.2179 43.7112L41.5743 44.3548C41.1351 44.8252 40.8054 45.3869 40.6088 45.9996C40.5304 46.4081 40.5675 46.8303 40.716 47.2187C40.8644 47.6072 41.1183 47.9466 41.4491 48.1986C41.7168 48.3003 42.0063 48.3311 42.2894 48.288C45.3108 48.1093 49.4407 45.6242 49.6552 43.0676C49.9493 39.9671 49.738 36.8394 49.0295 33.8067C48.9411 33.4555 48.8337 33.1093 48.7077 32.7698C48.6567 32.6568 48.6297 32.5345 48.6284 32.4106C48.6272 32.2867 48.6517 32.1639 48.7005 32.05C48.7493 31.9361 48.8212 31.8335 48.9117 31.7489C49.0022 31.6642 49.1093 31.5993 49.2262 31.5583C49.3431 31.5172 49.4673 31.5009 49.5909 31.5104C49.7144 31.5199 49.8346 31.555 49.9439 31.6135C50.0532 31.6719 50.1491 31.7524 50.2256 31.8499C50.3021 31.9474 50.3575 32.0597 50.3882 32.1798C50.5312 32.5552 50.6564 32.9485 50.7637 33.3419C51.5317 36.5837 51.7672 39.9289 51.4609 43.2464C51.0497 47.1081 45.8293 49.8613 42.5218 50.058C41.8145 50.1493 41.0979 49.9844 40.5016 49.5931C39.8996 49.1465 39.437 48.5379 39.168 47.8383C38.8989 47.1387 38.8344 46.377 38.9819 45.6421C39.2459 44.6741 39.7501 43.7885 40.4479 43.0676L41.1094 42.424C41.1851 42.3533 41.245 42.2673 41.2851 42.1718C41.3251 42.0763 41.3445 41.9733 41.3419 41.8698C41.313 41.7198 41.2331 41.5845 41.1158 41.4867C40.9985 41.3889 40.8509 41.3348 40.6982 41.3334H34.3872C27.969 41.3334 26.0917 48.4847 25.8057 52.0603H29.0417C29.1916 52.058 29.3395 52.095 29.4707 52.1676L35.6923 55.5645H46.9199C47.1555 55.569 47.3802 55.6647 47.5469 55.8314C47.7135 55.998 47.8092 56.2227 47.8138 56.4584C47.8091 56.6923 47.7128 56.9151 47.5457 57.0789C47.3786 57.2427 47.1539 57.3345 46.9199 57.3344Z" fill="#256FEF"/>
<path d="M56.9164 48.0895C56.694 48.0906 56.4792 48.0088 56.3139 47.8601C56.1486 47.7113 56.0447 47.5063 56.0225 47.285C55.6649 43.8524 54.628 37.5235 51.6423 33.6261C51.5146 33.4377 51.4636 33.2078 51.4995 32.9831C51.5355 32.7584 51.6558 32.5559 51.8359 32.4168C52.016 32.2778 52.2423 32.2126 52.4688 32.2347C52.6953 32.2567 52.9048 32.3643 53.0547 32.5355C56.3264 36.7905 57.4349 43.4948 57.8103 47.1062C57.826 47.3416 57.7516 47.5742 57.6022 47.7567C57.4528 47.9393 57.2396 48.0583 57.0058 48.0895H56.9164Z" fill="#256FEF"/>
<path d="M48.9085 56.8525C56.2028 49.8085 60.1718 52.2221 60.7796 51.6857C60.96 51.5347 61.105 51.346 61.2045 51.1328C61.304 50.9197 61.3556 50.6873 61.3556 50.4521C61.3556 50.2169 61.304 49.9845 61.2045 49.7714C61.105 49.5583 60.96 49.3695 60.7796 49.2185C59.659 48.2919 58.3258 47.6581 56.8997 47.3741C55.4736 47.0901 53.9993 47.1649 52.6093 47.5916C50.9213 48.0822 49.4261 49.0823 48.3284 50.4553C47.2307 51.8282 46.5841 53.5068 46.4771 55.2614C46.4703 55.5388 46.5331 55.8136 46.6598 56.0606C46.7865 56.3076 46.973 56.5189 47.2023 56.6753C47.4316 56.8317 47.6964 56.9283 47.9725 56.9561C48.2487 56.9839 48.5274 56.9422 48.7833 56.8346L48.9085 56.8525Z" fill="white"/>
<path d="M59.5991 51.7192C59.5472 51.3559 59.3624 51.0247 59.0806 50.7896C58.0738 49.9739 56.8827 49.4172 55.6112 49.1679C54.3397 48.9186 53.0265 48.9843 51.7863 49.3593C50.6038 49.7104 49.5219 50.3377 48.6297 51.1895C47.7375 52.0413 47.0607 53.093 46.6552 54.2579C46.5889 54.6067 46.5411 54.9588 46.5122 55.3127C46.5055 55.5902 46.5683 55.865 46.695 56.112C46.8216 56.3589 47.0081 56.5703 47.2374 56.7267C47.4667 56.8831 47.7315 56.9796 48.0077 57.0075C48.2839 57.0353 48.5626 56.9936 48.8185 56.886C54.2892 51.6477 57.847 51.612 59.5991 51.7192Z" fill="#DBE8FF"/>
<path d="M48.1765 57.9063C47.6435 57.9052 47.1243 57.7363 46.6926 57.4236C46.3447 57.1839 46.0636 56.8595 45.8759 56.481C45.6882 56.1025 45.6001 55.6824 45.6199 55.2603C45.7457 53.324 46.463 51.4729 47.6748 49.9573C48.8866 48.4418 50.5345 47.3348 52.3958 46.7861C53.9188 46.3342 55.5291 46.2608 57.0868 46.5724C58.6446 46.8839 60.1028 47.571 61.3349 48.5739C61.62 48.8029 61.8523 49.0908 62.0158 49.4178C62.1793 49.7449 62.2703 50.1035 62.2824 50.469C62.2864 50.8319 62.2135 51.1915 62.0687 51.5242C61.9239 51.857 61.7104 52.1554 61.4421 52.3998C61.2183 52.5556 60.9636 52.6618 60.6954 52.7111C60.4271 52.7604 60.1514 52.7518 59.8867 52.6859C58.4207 52.5786 55.006 52.3283 49.571 57.5487C49.4934 57.6244 49.4025 57.685 49.3028 57.7275C48.9446 57.8672 48.5604 57.9281 48.1765 57.9063ZM55.1848 48.1627C54.4165 48.1617 53.652 48.2701 52.9142 48.4845C51.404 48.9275 50.0662 49.8234 49.0814 51.0512C48.0967 52.2789 47.5125 53.7793 47.4077 55.3497C47.4026 55.471 47.4277 55.5917 47.4808 55.7009C47.5338 55.8102 47.6132 55.9045 47.7117 55.9755C47.8121 56.0451 47.9271 56.091 48.0479 56.1096C48.1687 56.1282 48.2922 56.119 48.4089 56.0827C54.3266 50.4332 58.2777 50.7193 59.9761 50.8444H60.3158C60.3967 50.7225 60.4402 50.5795 60.441 50.4332C60.4346 50.326 60.4059 50.2212 60.3567 50.1258C60.3074 50.0303 60.2387 49.9463 60.1549 49.879C58.7406 48.7601 56.9881 48.1549 55.1848 48.1627Z" fill="#256FEF"/>
<path d="M47.2461 29.9621C47.2461 31.3923 49.4094 32.6259 52.395 33.0014C52.9115 33.0842 53.4398 32.9597 53.865 32.655C54.2902 32.3503 54.5779 31.8901 54.6655 31.3744C54.7374 30.9071 54.7733 30.4349 54.7728 29.9621C54.774 29.4892 54.7382 29.017 54.6655 28.5497C54.5777 28.0329 54.2907 27.5711 53.8662 27.2636C53.4417 26.9561 52.9135 26.8273 52.395 26.9049C49.4451 27.2982 47.2461 28.5139 47.2461 29.9621Z" fill="white"/>
<path d="M51.6605 29.4252C50.2007 29.5533 48.7947 30.0383 47.5664 30.8376C48.8421 32.1669 50.5878 32.9434 52.4293 33.0008C52.7165 33.0429 53.0094 33.0215 53.2874 32.9381C53.5654 32.8547 53.8217 32.7114 54.0383 32.5181C54.0382 32.0453 54.0023 31.5732 53.931 31.1057C53.8472 30.5845 53.5627 30.1168 53.1383 29.8027C52.714 29.4886 52.1835 29.3531 51.6605 29.4252Z" fill="#DBE8FF"/>
<path d="M52.6977 33.9138H52.3044C48.7288 33.449 46.3867 31.8936 46.3867 29.9806C46.3867 28.0677 48.7109 26.5122 52.3044 26.0295C53.0595 25.9212 53.827 26.1133 54.442 26.5646C55.0571 27.0158 55.4707 27.6903 55.594 28.4431C55.6666 28.9524 55.7024 29.4662 55.7013 29.9806C55.7017 30.495 55.6659 31.0088 55.594 31.5181C55.4784 32.1983 55.1225 32.8143 54.5909 33.254C54.0593 33.6937 53.3875 33.9279 52.6977 33.9138ZM52.6977 27.7816H52.6083C49.9087 28.1392 48.2461 29.194 48.2461 29.9627C48.2461 30.7315 49.9087 31.7506 52.6083 32.126C52.8944 32.1738 53.1879 32.1094 53.4277 31.9462C53.6675 31.783 53.8351 31.5336 53.8956 31.25C53.952 30.8232 53.9819 30.3933 53.985 29.9627C53.9831 29.5322 53.9533 29.1022 53.8956 28.6755C53.8434 28.4039 53.6916 28.1617 53.47 27.9963C53.2483 27.8309 52.9729 27.7543 52.6977 27.7816Z" fill="#256FEF"/>
<path d="M52.9806 33.8929C52.791 33.8981 52.6049 33.8417 52.4501 33.7321C52.2954 33.6225 52.1804 33.4656 52.1224 33.285C51.5217 31.127 51.5217 28.846 52.1224 26.688C52.1736 26.4805 52.3019 26.3002 52.4812 26.184C52.6606 26.0677 52.8775 26.0242 53.0878 26.0623C53.7096 26.1328 54.2912 26.4053 54.7433 26.838C55.1954 27.2708 55.4931 27.8398 55.5908 28.4579C55.6634 28.9672 55.6992 29.481 55.698 29.9955C55.6985 30.5098 55.6627 31.0236 55.5908 31.533C55.4923 32.1491 55.1939 32.7157 54.7416 33.1454C54.2893 33.5751 53.7082 33.844 53.0878 33.9108L52.9806 33.8929ZM53.6063 28.1898C53.4109 29.3736 53.4109 30.5815 53.6063 31.7654C53.7254 31.6281 53.8057 31.4614 53.8387 31.2827C53.8952 30.8559 53.925 30.426 53.9281 29.9955C53.9263 29.5649 53.8964 29.1349 53.8387 28.7082C53.814 28.5163 53.7331 28.3359 53.6063 28.1898Z" fill="#256FEF"/>
<path d="M37.6265 41.1342H29.9031C28.5959 41.1295 27.3436 40.6081 26.4192 39.6837C25.4948 38.7594 24.9735 37.507 24.9688 36.1998V34.0008C24.9735 32.6936 25.4948 31.4412 26.4192 30.5169C27.3436 29.5925 28.5959 29.0711 29.9031 29.0664H33.5682C34.8785 29.0664 36.1354 29.5857 37.0636 30.5106C37.9919 31.4354 38.5157 32.6905 38.5204 34.0008V40.2403C38.5204 40.4774 38.4262 40.7047 38.2586 40.8724C38.091 41.04 37.8636 41.1342 37.6265 41.1342ZM29.9031 30.8542C29.0686 30.8542 28.2683 31.1857 27.6782 31.7758C27.0881 32.3659 26.7566 33.1663 26.7566 34.0008V36.1998C26.7566 37.0343 27.0881 37.8347 27.6782 38.4248C28.2683 39.0149 29.0686 39.3464 29.9031 39.3464H36.7326V33.9829C36.7303 33.5697 36.6466 33.161 36.4863 32.7801C36.326 32.3993 36.0922 32.0537 35.7984 31.7632C35.5045 31.4727 35.1563 31.2428 34.7737 31.0869C34.391 30.9309 33.9814 30.8519 33.5682 30.8542H29.9031Z" fill="#4F4F4F"/>
<path d="M37.6265 41.1342H29.9031C28.5959 41.1295 27.3436 40.6081 26.4192 39.6837C25.4948 38.7594 24.9735 37.507 24.9688 36.1998V34.0008C24.9735 32.6936 25.4948 31.4412 26.4192 30.5169C27.3436 29.5925 28.5959 29.0711 29.9031 29.0664H33.5682C34.8785 29.0664 36.1354 29.5857 37.0636 30.5106C37.9919 31.4354 38.5157 32.6905 38.5204 34.0008V40.2403C38.5204 40.4774 38.4262 40.7047 38.2586 40.8724C38.091 41.04 37.8636 41.1342 37.6265 41.1342ZM29.9031 30.8542C29.0686 30.8542 28.2683 31.1857 27.6782 31.7758C27.0881 32.3659 26.7566 33.1663 26.7566 34.0008V36.1998C26.7566 37.0343 27.0881 37.8347 27.6782 38.4248C28.2683 39.0149 29.0686 39.3464 29.9031 39.3464H36.7326V33.9829C36.7303 33.5697 36.6466 33.161 36.4863 32.7801C36.326 32.3993 36.0922 32.0537 35.7984 31.7632C35.5045 31.4727 35.1563 31.2428 34.7737 31.0869C34.391 30.9309 33.9814 30.8519 33.5682 30.8542H29.9031Z" fill="#4F4F4F"/>
<path d="M35.4444 39.8684V34.8446C35.4444 34.214 35.1938 33.6092 34.7479 33.1632C34.302 32.7173 33.6972 32.4668 33.0666 32.4668H28.6864C28.0572 32.4715 27.4551 32.7235 27.0102 33.1684C26.5653 33.6133 26.3133 34.2154 26.3086 34.8446V38.1699C26.3223 38.5219 26.4165 38.866 26.5838 39.1759C26.7512 39.4858 26.9873 39.7533 27.274 39.9578C27.6228 40.0881 27.9922 40.1547 28.3646 40.1544H35.3192C35.3826 40.0701 35.4254 39.9721 35.4444 39.8684Z" fill="#DBE8FF"/>
<path d="M37.6265 41.1342H29.9031C28.5959 41.1295 27.3436 40.6081 26.4192 39.6837C25.4948 38.7594 24.9735 37.507 24.9688 36.1998V34.0008C24.9735 32.6936 25.4948 31.4412 26.4192 30.5169C27.3436 29.5925 28.5959 29.0711 29.9031 29.0664H33.5682C34.8785 29.0664 36.1354 29.5857 37.0636 30.5106C37.9919 31.4354 38.5157 32.6905 38.5204 34.0008V40.2403C38.5204 40.4774 38.4262 40.7047 38.2586 40.8724C38.091 41.04 37.8636 41.1342 37.6265 41.1342ZM29.9031 30.8542C29.0686 30.8542 28.2683 31.1857 27.6782 31.7758C27.0881 32.3659 26.7566 33.1663 26.7566 34.0008V36.1998C26.7566 37.0343 27.0881 37.8347 27.6782 38.4248C28.2683 39.0149 29.0686 39.3464 29.9031 39.3464H36.7326V33.9829C36.7303 33.5697 36.6466 33.161 36.4863 32.7801C36.326 32.3993 36.0922 32.0537 35.7984 31.7632C35.5045 31.4727 35.1563 31.2428 34.7737 31.0869C34.391 30.9309 33.9814 30.8519 33.5682 30.8542H29.9031Z" fill="#256FEF"/>
</svg>
