<svg width="86" height="86" viewBox="0 0 86 86" fill="none" xmlns="http://www.w3.org/2000/svg">
<circle cx="43" cy="43" r="43" fill="#F7FAFF"/>
<path d="M50.8633 44.3305L46.5776 41.7114L43.0061 44.3305L39.4347 41.7114L35.3871 44.3305L34.4347 43.6162C33.7204 42.9019 33.4823 41.9495 33.4823 40.9972V40.0448C33.4823 39.3305 33.4823 38.6162 33.7204 37.9019L36.1014 31.2353C36.5776 29.5686 34.4347 29.8067 34.4347 29.8067H30.149C29.4347 29.8067 28.7204 30.2829 28.4823 31.2353L26.1014 37.9019C25.8633 38.6162 25.8633 39.3305 25.8633 40.0448V40.9972C25.8633 42.4257 26.8157 43.8543 28.0061 44.3305L27.768 44.5686V56.2352C27.768 57.9019 29.1966 59.3305 31.1014 59.3305H50.149C51.8157 59.3305 53.2442 57.9019 53.2442 56.2352V55.9972V41.7114L50.8633 44.3305Z" fill="#DBE8FF"/>
<path d="M62.7619 36.2381L60.1429 28.381C59.6667 26.9524 58.4762 26 56.8095 26H53.7143C53 26 52.5238 26.4762 52.5238 27.1905C52.5238 27.9048 53 28.381 53.7143 28.381H56.8095C57.2857 28.381 57.7619 28.619 57.7619 29.0952L60.619 36.9524C60.8571 37.6667 60.8571 38.381 60.8571 39.0952V40.2857C60.8571 41.7143 59.9048 42.9048 58.4762 43.1429C57.0476 43.381 55.8571 42.4286 55.619 41.2381C55.381 40.7619 54.9048 40.2857 54.4286 40.2857C53.9524 40.2857 53.2381 40.7619 53.2381 41.2381C53 42.1905 52.2857 42.9048 51.3333 43.1429C49.9048 43.619 48.4762 42.6667 48.2381 41.2381C48 40.7619 47.5238 40.2857 47.0476 40.2857C46.5714 40.2857 45.8571 40.7619 45.8571 41.2381C45.619 42.4286 44.4286 43.1429 43.2381 43.1429C42.0476 43.1429 40.8571 42.1905 40.619 41C40.381 40.5238 39.9048 40.0476 39.4286 40.0476C38.7143 40.0476 38.2381 40.5238 38.2381 41C38 41.9524 37.2857 42.6667 36.3333 42.9048C34.9048 43.1429 33.4762 42.4286 33.2381 41C33 40.5238 32.5238 40.0476 32.0476 40.0476C31.5714 40.0476 30.8571 40.5238 30.8571 41C30.619 42.1905 29.4286 43.1429 28 42.9048C26.5714 42.6667 25.619 41.4762 25.619 40.0476V38.8571C25.619 38.1429 25.619 37.4286 25.8571 36.9524L28.2381 29.0952C28.2381 28.619 28.7143 28.381 29.1905 28.381H48.9524C49.6667 28.381 50.1429 27.9048 50.1429 27.1905C50.1429 26.4762 49.6667 26 48.9524 26H29.1905C27.7619 26 26.3333 26.9524 26.0952 28.381L23.2381 36.2381C23 37.1905 23 38.1429 23 39.0952V40.2857C23 42.6667 24.4286 44.8095 26.8095 45.2857V56.2381C26.8095 58.8571 28.9524 61 31.5714 61H54.6667C57.2857 61 59.4286 58.8571 59.4286 56.2381V45.2857C61.5714 44.5714 63.2381 42.6667 63.2381 40.2857V39.0952C63 38.1429 63 37.1905 62.7619 36.2381ZM54.4286 58.619H31.3333C29.9048 58.619 28.9524 57.6667 28.9524 56.2381V45.2857C29.9048 45.0476 30.8571 44.5714 31.5714 43.619C31.8095 44.0952 32.0476 44.0952 32.0476 44.3333C34.1905 46.2381 37.2857 46 39.1905 43.8571C40.1429 45.0476 41.5714 45.5238 43 45.5238C44.4286 45.5238 45.8571 44.8095 46.8095 43.8571C47.7619 45.0476 49.1905 45.5238 50.619 45.5238C52.0476 45.5238 53.4762 44.8095 54.4286 43.8571C55.1429 44.5714 56.0952 45.2857 57.0476 45.5238V56.4762C56.8095 57.6667 55.8571 58.619 54.4286 58.619Z" fill="#256FEF"/>
</svg>
