<svg width="86" height="86" viewBox="0 0 86 86" fill="none" xmlns="http://www.w3.org/2000/svg">
<circle cx="43" cy="43" r="43" fill="#F7FAFF"/>
<path d="M26 33L38.6577 37.4076C39.4614 37.6875 40 38.4453 40 39.2964V59H26V33Z" fill="#DBE8FF"/>
<g clip-path="url(#clip0)">
<path d="M58.18 43.2205L46.14 39.5455V33.4905C46.14 33.4861 46.14 33.4817 46.14 33.4773C46.14 32.3413 45.3992 31.3788 44.3725 31.0463L44.355 31.0419L28.29 26.1069C28.0683 26.0369 27.8146 25.9961 27.5506 25.9961C26.9848 25.9961 26.4642 26.1828 26.0427 26.4963L26.05 26.4919C25.4098 26.9615 25 27.7111 25 28.5569V58.4469C25 59.8586 26.1433 61.0019 27.555 61.0019H57.445C58.8567 61.0019 60 59.8586 60 58.4469V45.6719C60 45.6705 60 45.6705 60 45.669C60 44.5198 59.2417 43.5486 58.1975 43.2263L58.18 43.2219V43.2205ZM27.205 58.4455V28.5555C27.205 28.4417 27.259 28.3396 27.3435 28.2755H27.345C27.4004 28.2215 27.4719 28.1836 27.5535 28.1705H27.555H27.66L43.69 33.1405C43.8504 33.174 43.97 33.3155 43.97 33.4832C43.97 33.4861 43.97 33.4876 43.97 33.4905V58.8305H39.945V51.5155C39.926 50.9234 39.4521 50.4494 38.8615 50.4305H38.86H32.28C31.6879 50.4494 31.214 50.9234 31.195 51.514V51.5155V58.8305H27.555H27.5535C27.3596 58.8305 27.2035 58.6744 27.2035 58.4805C27.2035 58.4688 27.2035 58.4557 27.205 58.444V58.4455ZM33.4 58.8305V52.6005H37.775V58.8305H33.4ZM57.83 58.4455C57.8315 58.4571 57.8315 58.4688 57.8315 58.4819C57.8315 58.6759 57.6754 58.8319 57.4815 58.8319C57.4683 58.8319 57.4552 58.8319 57.4435 58.8305H57.445H46.14V41.8205L57.55 45.3205C57.7104 45.354 57.83 45.4955 57.83 45.6632C57.83 45.6661 57.83 45.6676 57.83 45.6705V58.4455ZM54.155 47.5255H49.08C48.4806 47.5255 47.995 48.0111 47.995 48.6105C47.995 49.2098 48.4806 49.6955 49.08 49.6955H54.155C54.7544 49.6955 55.24 49.2098 55.24 48.6105C55.24 48.0111 54.7544 47.5255 54.155 47.5255ZM54.155 51.9005H49.08C48.4806 51.9005 47.995 52.3861 47.995 52.9855C47.995 53.5848 48.4806 54.0705 49.08 54.0705H54.155C54.7544 54.0705 55.24 53.5848 55.24 52.9855C55.24 52.3861 54.7544 51.9005 54.155 51.9005ZM30.46 36.9205H33.015C33.6144 36.9205 34.1 36.4348 34.1 35.8355C34.1 35.2361 33.6144 34.7505 33.015 34.7505H30.46C29.8606 34.7505 29.375 35.2361 29.375 35.8355C29.375 36.4348 29.8606 36.9205 30.46 36.9205ZM30.46 42.0305H33.015C33.6144 42.0305 34.1 41.5448 34.1 40.9455C34.1 40.3461 33.6144 39.8605 33.015 39.8605H30.46C29.8606 39.8605 29.375 40.3461 29.375 40.9455C29.375 41.5448 29.8606 42.0305 30.46 42.0305ZM37.775 36.9205H40.33C40.9294 36.9205 41.415 36.4348 41.415 35.8355C41.415 35.2361 40.9294 34.7505 40.33 34.7505H37.775C37.1756 34.7505 36.69 35.2361 36.69 35.8355C36.69 36.4348 37.1756 36.9205 37.775 36.9205ZM37.775 42.0305H40.33C40.9294 42.0305 41.415 41.5448 41.415 40.9455C41.415 40.3461 40.9294 39.8605 40.33 39.8605H37.775C37.1756 39.8605 36.69 40.3461 36.69 40.9455C36.69 41.5448 37.1756 42.0305 37.775 42.0305ZM33.015 47.1405C33.6144 47.1405 34.1 46.6548 34.1 46.0555C34.1 45.4561 33.6144 44.9705 33.015 44.9705H30.46C29.8606 44.9705 29.375 45.4561 29.375 46.0555C29.375 46.6548 29.8606 47.1405 30.46 47.1405H33.015ZM37.775 47.1405H40.33C40.9294 47.1405 41.415 46.6548 41.415 46.0555C41.415 45.4561 40.9294 44.9705 40.33 44.9705H37.775C37.1756 44.9705 36.69 45.4561 36.69 46.0555C36.69 46.6548 37.1756 47.1405 37.775 47.1405Z" fill="#256FEF"/>
</g>
<defs>
<clipPath id="clip0">
<rect width="35" height="35" fill="white" transform="translate(25 26)"/>
</clipPath>
</defs>
</svg>
