<svg width="86" height="86" viewBox="0 0 86 86" fill="none" xmlns="http://www.w3.org/2000/svg">
<circle cx="43" cy="43" r="43" fill="#F7FAFF"/>
<path d="M32.54 59.1487C30.0145 59.3695 27.4982 58.633 25.4902 57.0854C24.531 55.6619 24.0127 53.9873 24 52.2709C24.1233 50.1265 25.0912 48.1184 26.6917 46.6861C28.2923 45.2538 30.3952 44.5141 32.54 44.6288C34.6816 44.5193 36.7796 45.2614 38.376 46.6931C39.9724 48.1249 40.9376 50.13 41.0609 52.2709C41.045 53.9925 40.5126 55.6698 39.5325 57.0854C37.5404 58.6208 35.0466 59.3567 32.54 59.1487ZM32.54 46.5202C30.9028 46.4096 29.288 46.9495 28.0467 48.0227C26.8053 49.096 26.0377 50.6157 25.9105 52.2518C25.9056 53.4943 26.2356 54.7153 26.8658 55.7862C28.5521 56.9171 30.5748 57.4363 32.5973 57.2573C34.62 57.4379 36.6433 56.9186 38.3289 55.7862C38.9615 54.7093 39.2915 53.4816 39.2842 52.2327C39.2216 51.4128 38.9969 50.6135 38.623 49.8812C38.2491 49.1489 37.7335 48.4982 37.1061 47.9668C36.4787 47.4353 35.752 47.0338 34.9682 46.7855C34.1843 46.5372 33.359 46.447 32.54 46.5202Z" fill="#256FEF"/>
<path d="M32.5446 43.7319C31.5487 43.7244 30.5773 43.4222 29.7529 42.8634C28.9285 42.3046 28.288 41.5143 27.9121 40.592C27.5362 39.6697 27.4418 38.6568 27.6407 37.681C27.8396 36.7051 28.323 35.81 29.0298 35.1084C29.7367 34.4068 30.6355 33.9302 31.6128 33.7387C32.5902 33.5472 33.6023 33.6492 34.5217 34.0321C35.4411 34.4149 36.2266 35.0614 36.7792 35.89C37.3317 36.7186 37.6266 37.6922 37.6266 38.6882C37.6266 39.3537 37.4949 40.0128 37.239 40.6272C36.9832 41.2416 36.6082 41.7994 36.1358 42.2682C35.6634 42.7371 35.1029 43.1078 34.4865 43.359C33.8702 43.6102 33.2102 43.737 32.5446 43.7319ZM32.5446 35.5549C31.9266 35.5624 31.3246 35.7526 30.8144 36.1014C30.3042 36.4503 29.9086 36.9422 29.6773 37.5154C29.446 38.0885 29.3893 38.7173 29.5145 39.3225C29.6397 39.9278 29.9411 40.4825 30.3808 40.9169C30.8204 41.3512 31.3788 41.6459 31.9855 41.7637C32.5922 41.8815 33.2202 41.8173 33.7905 41.5791C34.3608 41.3408 34.8479 40.9393 35.1906 40.4249C35.5332 39.9105 35.716 39.3062 35.7161 38.6882C35.7161 38.2735 35.6338 37.8629 35.474 37.4802C35.3141 37.0976 35.0799 36.7504 34.7849 36.459C34.4899 36.1675 34.14 35.9375 33.7554 35.7824C33.3708 35.6272 32.9593 35.5499 32.5446 35.5549Z" fill="#256FEF"/>
<path d="M42.3245 43.3461C43.8518 42.6657 45.5052 42.3142 47.1772 42.3145C53.0425 42.3145 57.7997 46.5176 57.7997 51.676C57.7997 51.676 57.6659 55.8982 56.0802 57.5604C52.9278 60.8656 41.4265 60.8656 38.2742 57.5604C36.6884 55.8982 36.5547 51.676 36.5547 51.676C36.5655 49.7934 37.1967 47.9669 38.3506 46.4794" fill="white"/>
<path d="M57.7994 51.6789C57.7546 50.0027 57.252 48.3707 56.3461 46.9596C55.4402 45.5486 54.1655 44.4123 52.6601 43.6738H52.0678C46.2025 43.6738 41.4453 47.8579 41.4453 53.0354C41.4453 53.0354 41.579 57.2576 43.1648 58.9007C43.5689 59.3232 44.0484 59.6666 44.5786 59.9132C48.9728 60.41 54.1312 59.6267 56.0417 57.5824C57.6656 55.9011 57.7994 51.6789 57.7994 51.6789Z" fill="#DBE8FF"/>
<path d="M47.1784 60.9998C42.8224 60.9998 39.2307 59.9681 37.6258 58.2295C36.021 56.491 35.7153 52.1923 35.7153 51.7147C35.6945 49.6151 36.3659 47.5672 37.6258 45.8876C37.7804 45.6849 38.0091 45.5519 38.2617 45.5179C38.5143 45.4838 38.7701 45.5515 38.9727 45.7061C39.1754 45.8606 39.3084 46.0894 39.3425 46.342C39.3765 46.5946 39.3088 46.8503 39.1542 47.053C38.1269 48.3766 37.5631 50.0011 37.5494 51.6765C37.5476 53.5211 38.0496 55.3312 39.0014 56.9113C40.2624 58.2295 43.4911 59.0893 47.2166 59.0893C50.9422 59.0893 54.1709 58.2295 55.4319 56.9113C56.3861 55.3252 56.8882 53.5083 56.8839 51.6574C56.8457 47.0148 52.5088 43.1938 47.1784 43.1938C45.6431 43.1873 44.1245 43.5132 42.7269 44.149C42.4963 44.2524 42.2341 44.2602 41.9978 44.1706C41.7615 44.0811 41.5702 43.9016 41.466 43.6714C41.4116 43.5588 41.3803 43.4364 41.3739 43.3115C41.3676 43.1866 41.3863 43.0617 41.4291 42.9441C41.4718 42.8266 41.5377 42.7188 41.6228 42.6271C41.7079 42.5355 41.8105 42.4618 41.9245 42.4104C43.575 41.6633 45.3667 41.2789 47.1784 41.2832C53.5596 41.2832 58.7562 45.9258 58.7562 51.6C58.7562 52.1159 58.546 56.2808 56.8457 58.1531C55.1453 60.0254 51.5344 60.9998 47.1784 60.9998Z" fill="#256FEF"/>
<path d="M52.7774 33.0515C52.9713 34.1459 52.7524 35.2733 52.163 36.2156C51.5737 37.1579 50.6557 37.8481 49.5869 38.1526C47.1032 39.1461 44.5049 38.4392 43.8553 36.6051C43.2057 34.771 44.6959 34.2934 47.1796 33.319C49.6633 32.3446 51.5929 29.0394 52.7774 33.0515Z" fill="#DBE8FF"/>
<path d="M47.1751 39.3736C45.8526 39.3736 44.5597 38.9815 43.4601 38.2467C42.3605 37.5119 41.5034 36.4676 40.9973 35.2458C40.4912 34.0239 40.3588 32.6794 40.6168 31.3823C40.8748 30.0852 41.5116 28.8937 42.4468 27.9585C43.382 27.0234 44.5735 26.3865 45.8706 26.1285C47.1677 25.8705 48.5122 26.0029 49.734 26.509C50.9559 27.0151 52.0002 27.8722 52.735 28.9718C53.4697 30.0715 53.8619 31.3643 53.8619 32.6868C53.8619 34.4603 53.1574 36.1611 51.9034 37.4151C50.6494 38.6691 48.9486 39.3736 47.1751 39.3736ZM47.1751 27.9105C46.2304 27.9105 45.307 28.1906 44.5215 28.7155C43.7361 29.2403 43.1239 29.9863 42.7624 30.859C42.4009 31.7318 42.3063 32.6921 42.4906 33.6186C42.6749 34.5451 43.1298 35.3962 43.7977 36.0642C44.4657 36.7321 45.3168 37.187 46.2433 37.3713C47.1698 37.5556 48.1302 37.461 49.0029 37.0995C49.8757 36.738 50.6216 36.1258 51.1464 35.3404C51.6713 34.5549 51.9514 33.6315 51.9514 32.6868C51.9514 31.4201 51.4482 30.2052 50.5525 29.3095C49.6567 28.4137 48.4419 27.9105 47.1751 27.9105Z" fill="#256FEF"/>
<path d="M58.0795 41.2831C57.9896 41.1964 57.9179 41.0926 57.8686 40.9777C57.8194 40.8629 57.7937 40.7393 57.793 40.6144V36.2775C57.793 36.0242 57.8936 35.7812 58.0728 35.6021C58.2519 35.4229 58.4949 35.3223 58.7482 35.3223C59.0016 35.3223 59.2446 35.4229 59.4237 35.6021C59.6028 35.7812 59.7035 36.0242 59.7035 36.2775V40.5571C59.7035 40.8104 59.6028 41.0534 59.4237 41.2326C59.2446 41.4117 59.0016 41.5123 58.7482 41.5123C58.6269 41.5237 58.5045 41.5091 58.3892 41.4696C58.274 41.4301 58.1684 41.3665 58.0795 41.2831Z" fill="#DBE8FF"/>
<path d="M55.9433 39.0868C55.8495 39.0031 55.7753 38.8998 55.7258 38.7843C55.6762 38.6688 55.6527 38.5438 55.6567 38.4181C55.6567 38.1648 55.7573 37.9218 55.9365 37.7427C56.1156 37.5635 56.3586 37.4629 56.6119 37.4629H60.8915C61.1449 37.4629 61.3878 37.5635 61.567 37.7427C61.7461 37.9218 61.8468 38.1648 61.8468 38.4181C61.8468 38.6715 61.7461 38.9145 61.567 39.0936C61.3878 39.2728 61.1449 39.3734 60.8915 39.3734H56.6119C56.487 39.3727 56.3635 39.3469 56.2486 39.2977C56.1338 39.2485 56.03 39.1768 55.9433 39.0868Z" fill="#DBE8FF"/>
</svg>
